
<svg xmlns="http://www.w3.org/2000/svg" style="display:none">
  <symbol id="logo" viewBox="0 0 24 24">
    <circle cx="12" cy="12" r="10" fill="#0057B8"/>
    <path d="M7 12l3 3 7-7" stroke="#FFD700" stroke-width="2" fill="none" stroke-linecap="round" stroke-linejoin="round"/>
  </symbol>
  <symbol id="target" viewBox="0 0 24 24">
    <circle cx="12" cy="12" r="9" fill="none" stroke="currentColor" stroke-width="2"/>
    <circle cx="12" cy="12" r="3" fill="currentColor"/>
  </symbol>
  <symbol id="verified" viewBox="0 0 24 24">
    <path d="M12 2l3 2 3-1 1 3 3 1-1 3 2 3-3 2-1 3-3-1-3 2-3-2-3 1-1-3-3-2 2-3-1-3 3-1 1-3 3 1z" fill="none" stroke="currentColor" stroke-width="1.5"/>
    <path d="M8 12l2.5 2.5L16 9" stroke="currentColor" stroke-width="2" fill="none" stroke-linecap="round" stroke-linejoin="round"/>
  </symbol>
</svg>