
<svg xmlns="http://www.w3.org/2000/svg" style="display:none">
  <symbol id="logo" viewBox="0 0 24 24">
    <circle cx="12" cy="12" r="10" fill="#0057B8"/>
    <path d="M7 12l3 3 7-7" stroke="#FFD700" stroke-width="2" fill="none" stroke-linecap="round" stroke-linejoin="round"/>
  </symbol>
  <symbol id="target" viewBox="0 0 24 24">
    <circle cx="12" cy="12" r="9" fill="none" stroke="currentColor" stroke-width="2"/>
    <circle cx="12" cy="12" r="3" fill="currentColor"/>
  </symbol>
  <symbol id="verified" viewBox="0 0 24 24">
    <path d="M12 2l3 2 3-1 1 3 3 1-1 3 2 3-3 2-1 3-3-1-3 2-3-2-3 1-1-3-3-2 2-3-1-3 3-1 1-3 3 1z" fill="none" stroke="currentColor" stroke-width="1.5"/>
    <path d="M8 12l2.5 2.5L16 9" stroke="currentColor" stroke-width="2" fill="none" stroke-linecap="round" stroke-linejoin="round"/>
  </symbol>
  <symbol id="volunteers" viewBox="0 0 24 24">
    <circle cx="8" cy="7" r="3" fill="none" stroke="currentColor" stroke-width="1.5"/>
    <circle cx="16" cy="7" r="3" fill="none" stroke="currentColor" stroke-width="1.5"/>
    <path d="M3 20v-1a4 4 0 0 1 4-4h2a4 4 0 0 1 4 4v1" fill="none" stroke="currentColor" stroke-width="1.5" stroke-linecap="round"/>
    <path d="M11 20v-1a4 4 0 0 1 4-4h2a4 4 0 0 1 4 4v1" fill="none" stroke="currentColor" stroke-width="1.5" stroke-linecap="round"/>
  </symbol>
  <symbol id="families" viewBox="0 0 24 24">
    <path d="M12 21s-6-3.6-6-8.1A3.9 3.9 0 0 1 9.9 9a3.6 3.6 0 0 1 2.1 0 3.6 3.6 0 0 1 2.1 0A3.9 3.9 0 0 1 18 12.9C18 17.4 12 21 12 21z" fill="none" stroke="currentColor" stroke-width="1.5" stroke-linecap="round" stroke-linejoin="round"/>
    <path d="M9 6a2 2 0 1 1 3-1.7A2 2 0 1 1 15 6" fill="none" stroke="currentColor" stroke-width="1.5" stroke-linecap="round" stroke-linejoin="round"/>
  </symbol>
  <symbol id="deliveries" viewBox="0 0 24 24">
    <path d="M3 7h11v9H3z" fill="none" stroke="currentColor" stroke-width="1.5" stroke-linejoin="round"/>
    <path d="M14 10h4l3 4v2h-3" fill="none" stroke="currentColor" stroke-width="1.5" stroke-linecap="round" stroke-linejoin="round"/>
    <circle cx="7" cy="18" r="2" fill="none" stroke="currentColor" stroke-width="1.5"/>
    <circle cx="16" cy="18" r="2" fill="none" stroke="currentColor" stroke-width="1.5"/>
  </symbol>
  <symbol id="funds" viewBox="0 0 24 24">
    <circle cx="12" cy="12" r="9" fill="none" stroke="currentColor" stroke-width="1.5"/>
    <path d="M12 7v10m3-7.5c0-1.4-1.3-2.5-3-2.5s-3 .9-3 2.5 1.1 2.2 3 2.5 3 1 3 2.5-1.3 2.5-3 2.5-3-1.1-3-2.5" fill="none" stroke="currentColor" stroke-width="1.5" stroke-linecap="round" stroke-linejoin="round"/>
  </symbol>
  <symbol id="donate" viewBox="0 0 24 24">
    <path d="M12 21s-7-3.6-7-9a4 4 0 0 1 7-2.6A4 4 0 0 1 19 12c0 5.4-7 9-7 9z" fill="none" stroke="currentColor" stroke-width="1.5" stroke-linecap="round" stroke-linejoin="round"/>
    <path d="M12 8v5" stroke="currentColor" stroke-width="1.5" stroke-linecap="round"/>
    <path d="M9.5 11h5" stroke="currentColor" stroke-width="1.5" stroke-linecap="round"/>
  </symbol>
  <symbol id="volunteer" viewBox="0 0 24 24">
    <path d="M5 20v-2a4 4 0 0 1 4-4h6a4 4 0 0 1 4 4v2" fill="none" stroke="currentColor" stroke-width="1.5" stroke-linecap="round" stroke-linejoin="round"/>
    <circle cx="12" cy="8" r="3.5" fill="none" stroke="currentColor" stroke-width="1.5"/>
    <path d="M8 4l-1.5 2.5" stroke="currentColor" stroke-width="1.5" stroke-linecap="round"/>
    <path d="M16 4l1.5 2.5" stroke="currentColor" stroke-width="1.5" stroke-linecap="round"/>
  </symbol>
  <symbol id="partner" viewBox="0 0 24 24">
    <path d="M7 9h10a3 3 0 0 1 3 3v6H4v-6a3 3 0 0 1 3-3z" fill="none" stroke="currentColor" stroke-width="1.5" stroke-linejoin="round"/>
    <path d="M9 12v3m6-3v3" stroke="currentColor" stroke-width="1.5" stroke-linecap="round"/>
    <path d="M8 6a4 4 0 0 1 8 0v3H8V6z" fill="none" stroke="currentColor" stroke-width="1.5" stroke-linejoin="round"/>
  </symbol>
  <symbol id="review-donor" viewBox="0 0 24 24">
    <path d="M12 21s-6.5-3.6-6.5-8.5a3.8 3.8 0 0 1 6.1-2.7 3.8 3.8 0 0 1 6.8 2.7c0 4.9-6.4 8.5-6.4 8.5z" fill="none" stroke="currentColor" stroke-width="1.5" stroke-linecap="round" stroke-linejoin="round"/>
    <path d="M12 7v4" stroke="currentColor" stroke-width="1.5" stroke-linecap="round"/>
    <path d="M10 9h4" stroke="currentColor" stroke-width="1.5" stroke-linecap="round"/>
  </symbol>
  <symbol id="review-recipient" viewBox="0 0 24 24">
    <circle cx="12" cy="8" r="3.5" fill="none" stroke="currentColor" stroke-width="1.5"/>
    <path d="M7 20v-1.5a4.5 4.5 0 0 1 4.5-4.5h1a4.5 4.5 0 0 1 4.5 4.5V20" fill="none" stroke="currentColor" stroke-width="1.5" stroke-linecap="round" stroke-linejoin="round"/>
    <path d="M7 14.5c.8-1.6 2.5-2.5 5-2.5s4.2.9 5 2.5" stroke="currentColor" stroke-width="1.5" stroke-linecap="round" stroke-linejoin="round" fill="none"/>
  </symbol>
  <symbol id="report" viewBox="0 0 24 24">
    <path d="M6 3h9l5 5v13a1 1 0 0 1-1 1H6a1 1 0 0 1-1-1V4a1 1 0 0 1 1-1z" fill="none" stroke="currentColor" stroke-width="1.5" stroke-linejoin="round"/>
    <path d="M15 3v5h5" fill="none" stroke="currentColor" stroke-width="1.5" stroke-linejoin="round"/>
    <path d="M8 12h8" stroke="currentColor" stroke-width="1.5" stroke-linecap="round"/>
    <path d="M8 16h5" stroke="currentColor" stroke-width="1.5" stroke-linecap="round"/>
  </symbol>
  <symbol id="tg" viewBox="0 0 24 24">
    <path d="M4 12L20 6l-4.2 12.3-3.8-3.1-2.7 2.8.5-4.5L17 8.2" fill="none" stroke="currentColor" stroke-width="1.5" stroke-linecap="round" stroke-linejoin="round"/>
  </symbol>
  <symbol id="wa" viewBox="0 0 24 24">
    <path d="M12 21a8.5 8.5 0 1 1 8.5-8.5c0 4.7-3.8 8.5-8.5 8.5-1.4 0-2.6-.3-3.8-.9L5 21l.7-3.9A8.4 8.4 0 0 1 3.5 12" fill="none" stroke="currentColor" stroke-width="1.5" stroke-linecap="round" stroke-linejoin="round"/>
    <path d="M15.3 14.6c-.2.4-1 1-1.4 1-.4.1-.5.1-.9 0s-1.1-.3-1.9-.9a6.6 6.6 0 0 1-2-2.3c-.1-.2-.4-.8-.4-1.1 0-.3.2-.6.4-.8.2-.2.3-.4.4-.6.1-.2 0-.4 0-.6s-.5-1.5-.7-1.7c-.2-.2-.4-.2-.6-.2h-.5c-.2 0-.6.1-.9.4-.3.3-1.2 1.2-1.2 2.9 0 1.7 1.2 3.3 1.4 3.6.2.3 2.4 3.7 5.8 5 2.9 1 3.4.8 4 1 .6.1 2-.8 2.3-1.6.3-.8.3-1.4.2-1.6-.1-.2-.3-.3-.6-.4-.3-.1-1.7-.8-2-.9-.3-.1-.5-.1-.6.1z" fill="none" stroke="currentColor" stroke-width="1.5" stroke-linecap="round" stroke-linejoin="round"/>
  </symbol>
  <symbol id="vb" viewBox="0 0 24 24">
    <path d="M5 5h14a2 2 0 0 1 2 2v8.5a2 2 0 0 1-2 2H13l-4 3v-3H5a2 2 0 0 1-2-2V7a2 2 0 0 1 2-2z" fill="none" stroke="currentColor" stroke-width="1.5" stroke-linejoin="round"/>
    <path d="M9.5 9c.5-1 1.4-1.5 2.5-1.5S14 8 14.5 9m-5 3c.5.8 1.3 1.3 2.5 1.3S14.5 13 15 12" fill="none" stroke="currentColor" stroke-width="1.5" stroke-linecap="round" stroke-linejoin="round"/>
  </symbol>
</svg>
