
<svg xmlns="http://www.w3.org/2000/svg" style="display:none">
  <symbol id="logo" viewBox="0 0 24 24">
    <circle cx="12" cy="12" r="10" fill="#0057B8"/>
    <path d="M7 12l3 3 7-7" stroke="#FFD700" stroke-width="2" fill="none" stroke-linecap="round" stroke-linejoin="round"/>
  </symbol>
  <symbol id="target" viewBox="0 0 24 24">
    <circle cx="12" cy="12" r="9" fill="none" stroke="currentColor" stroke-width="2"/>
    <circle cx="12" cy="12" r="3" fill="currentColor"/>
  </symbol>
  <symbol id="verified" viewBox="0 0 24 24">
    <path d="M12 2l3 2 3-1 1 3 3 1-1 3 2 3-3 2-1 3-3-1-3 2-3-2-3 1-1-3-3-2 2-3-1-3 3-1 1-3 3 1z" fill="none" stroke="currentColor" stroke-width="1.5"/>
    <path d="M8 12l2.5 2.5L16 9" stroke="currentColor" stroke-width="2" fill="none" stroke-linecap="round" stroke-linejoin="round"/>
  </symbol>
  <symbol id="volunteers" viewBox="0 0 24 24">
    <circle cx="8" cy="7" r="3" fill="none" stroke="currentColor" stroke-width="1.5"/>
    <circle cx="16" cy="7" r="3" fill="none" stroke="currentColor" stroke-width="1.5"/>
    <path d="M3 20v-1a4 4 0 0 1 4-4h2a4 4 0 0 1 4 4v1" fill="none" stroke="currentColor" stroke-width="1.5" stroke-linecap="round"/>
    <path d="M11 20v-1a4 4 0 0 1 4-4h2a4 4 0 0 1 4 4v1" fill="none" stroke="currentColor" stroke-width="1.5" stroke-linecap="round"/>
  </symbol>
  <symbol id="families" viewBox="0 0 24 24">
    <path d="M12 21s-6-3.6-6-8.1A3.9 3.9 0 0 1 9.9 9a3.6 3.6 0 0 1 2.1 0 3.6 3.6 0 0 1 2.1 0A3.9 3.9 0 0 1 18 12.9C18 17.4 12 21 12 21z" fill="none" stroke="currentColor" stroke-width="1.5" stroke-linecap="round" stroke-linejoin="round"/>
    <path d="M9 6a2 2 0 1 1 3-1.7A2 2 0 1 1 15 6" fill="none" stroke="currentColor" stroke-width="1.5" stroke-linecap="round" stroke-linejoin="round"/>
  </symbol>
  <symbol id="deliveries" viewBox="0 0 24 24">
    <path d="M3 7h11v9H3z" fill="none" stroke="currentColor" stroke-width="1.5" stroke-linejoin="round"/>
    <path d="M14 10h4l3 4v2h-3" fill="none" stroke="currentColor" stroke-width="1.5" stroke-linecap="round" stroke-linejoin="round"/>
    <circle cx="7" cy="18" r="2" fill="none" stroke="currentColor" stroke-width="1.5"/>
    <circle cx="16" cy="18" r="2" fill="none" stroke="currentColor" stroke-width="1.5"/>
  </symbol>
  <symbol id="funds" viewBox="0 0 24 24">
    <circle cx="12" cy="12" r="9" fill="none" stroke="currentColor" stroke-width="1.5"/>
    <path d="M12 7v10m3-7.5c0-1.4-1.3-2.5-3-2.5s-3 .9-3 2.5 1.1 2.2 3 2.5 3 1 3 2.5-1.3 2.5-3 2.5-3-1.1-3-2.5" fill="none" stroke="currentColor" stroke-width="1.5" stroke-linecap="round" stroke-linejoin="round"/>
  </symbol>
  <symbol id="donate" viewBox="0 0 24 24">
    <path d="M12 21s-7-3.6-7-9a4 4 0 0 1 7-2.6A4 4 0 0 1 19 12c0 5.4-7 9-7 9z" fill="none" stroke="currentColor" stroke-width="1.5" stroke-linecap="round" stroke-linejoin="round"/>
    <path d="M12 8v5" stroke="currentColor" stroke-width="1.5" stroke-linecap="round"/>
    <path d="M9.5 11h5" stroke="currentColor" stroke-width="1.5" stroke-linecap="round"/>
  </symbol>
  <symbol id="volunteer" viewBox="0 0 24 24">
    <path d="M5 20v-2a4 4 0 0 1 4-4h6a4 4 0 0 1 4 4v2" fill="none" stroke="currentColor" stroke-width="1.5" stroke-linecap="round" stroke-linejoin="round"/>
    <circle cx="12" cy="8" r="3.5" fill="none" stroke="currentColor" stroke-width="1.5"/>
    <path d="M8 4l-1.5 2.5" stroke="currentColor" stroke-width="1.5" stroke-linecap="round"/>
    <path d="M16 4l1.5 2.5" stroke="currentColor" stroke-width="1.5" stroke-linecap="round"/>
  </symbol>
  <symbol id="partner" viewBox="0 0 24 24">
    <path d="M7 9h10a3 3 0 0 1 3 3v6H4v-6a3 3 0 0 1 3-3z" fill="none" stroke="currentColor" stroke-width="1.5" stroke-linejoin="round"/>
    <path d="M9 12v3m6-3v3" stroke="currentColor" stroke-width="1.5" stroke-linecap="round"/>
    <path d="M8 6a4 4 0 0 1 8 0v3H8V6z" fill="none" stroke="currentColor" stroke-width="1.5" stroke-linejoin="round"/>
  </symbol>
  <symbol id="review-donor" viewBox="0 0 24 24">
    <path d="M12 21s-6.5-3.6-6.5-8.5a3.8 3.8 0 0 1 6.1-2.7 3.8 3.8 0 0 1 6.8 2.7c0 4.9-6.4 8.5-6.4 8.5z" fill="none" stroke="currentColor" stroke-width="1.5" stroke-linecap="round" stroke-linejoin="round"/>
    <path d="M12 7v4" stroke="currentColor" stroke-width="1.5" stroke-linecap="round"/>
    <path d="M10 9h4" stroke="currentColor" stroke-width="1.5" stroke-linecap="round"/>
  </symbol>
  <symbol id="review-recipient" viewBox="0 0 24 24">
    <circle cx="12" cy="8" r="3.5" fill="none" stroke="currentColor" stroke-width="1.5"/>
    <path d="M7 20v-1.5a4.5 4.5 0 0 1 4.5-4.5h1a4.5 4.5 0 0 1 4.5 4.5V20" fill="none" stroke="currentColor" stroke-width="1.5" stroke-linecap="round" stroke-linejoin="round"/>
    <path d="M7 14.5c.8-1.6 2.5-2.5 5-2.5s4.2.9 5 2.5" stroke="currentColor" stroke-width="1.5" stroke-linecap="round" stroke-linejoin="round" fill="none"/>
  </symbol>
  <symbol id="report" viewBox="0 0 24 24">
    <path d="M6 3h9l5 5v13a1 1 0 0 1-1 1H6a1 1 0 0 1-1-1V4a1 1 0 0 1 1-1z" fill="none" stroke="currentColor" stroke-width="1.5" stroke-linejoin="round"/>
    <path d="M15 3v5h5" fill="none" stroke="currentColor" stroke-width="1.5" stroke-linejoin="round"/>
    <path d="M8 12h8" stroke="currentColor" stroke-width="1.5" stroke-linecap="round"/>
    <path d="M8 16h5" stroke="currentColor" stroke-width="1.5" stroke-linecap="round"/>
  </symbol>
  <symbol id="map-pin" viewBox="0 0 24 24">
    <path d="M12 22s-7-6.2-7-12a7 7 0 0 1 14 0c0 5.8-7 12-7 12z" fill="none" stroke="currentColor" stroke-width="1.5" stroke-linejoin="round"/>
    <circle cx="12" cy="10" r="2.75" fill="currentColor"/>
  </symbol>
</svg>
