<?xml version="1.0" encoding="UTF-8"?>
<svg xmlns="http://www.w3.org/2000/svg" viewBox="0 0 256 256" width="256" height="256">
  <defs>
    <linearGradient id="fade" x1="0" y1="0" x2="0" y2="1">
      <stop offset="0" stop-color="#0057B8" stop-opacity="0.18"/>
      <stop offset="1" stop-color="#FFD700" stop-opacity="0.18"/>
    </linearGradient>
  </defs>
  <!-- Simple, stylized trident (not the official coat) suitable as a watermark -->
  <g fill="url(#fade)">
    <path d="M128 16c10 24 18 47 18 72 0 10-1 20-3 30l15-10c18-12 38-22 58-30-16 18-29 39-38 61l-7 17 18 8c-14 6-29 10-44 12l-18 2 0 46h-16l0-46-18-2c-15-2-30-6-44-12l18-8-7-17c-9-22-22-43-38-61 20 8 40 18 58 30l15 10c-2-10-3-20-3-30 0-25 8-48 18-72z"/>
  </g>
</svg>
